<svg xmlns="http://www.w3.org/2000/svg" width="48px" height="48px" fill="#ff0000" viewBox="0 0 24 24"><g>
                <path d="M12,21.933c-5.477,0-9.933-4.456-9.933-9.933c0-5.478,4.456-9.934,9.933-9.934
                    S21.933,6.523,21.933,12C21.933,17.477,17.477,21.933,12,21.933z M12,3.067c-4.926,0-8.933,4.008-8.933,8.934
                    S7.074,20.933,12,20.933s8.933-4.007,8.933-8.933S16.926,3.067,12,3.067z"/>
                <path d="M17.997,12.501h-6c-0.15,0-0.26-0.05-0.34-0.14c-0.01,0-0.01-0.01-0.02-0.02
                    c-0.09-0.08-0.14-0.19-0.14-0.34v-6c0-0.65,1-0.64,1,0v5.5h5.5C18.647,11.501,18.647,12.501,17.997,12.501z"/>
            </g></svg>